<svg xmlns="http://www.w3.org/2000/svg" id="Vrstva_1" viewBox="0 0 417.85 64.86">
    <defs>
        <style>.cls-1{fill-rule:evenodd;}.cls-1,.cls-2{fill:#000;}</style>
    </defs>
    <path class="cls-1" d="M156.65,9.79l36.05.05c.65,0,1.05.53.94,1.18l-1.11,6.68c-.11.66-.75,1.2-1.42,1.2l-35.82.04,1.36-9.16ZM153.83,26.93h39.47c3.79,0,7.17-3.12,7.77-6.89l1.77-11.18c.6-3.77-2.23-6.89-6.02-6.89h-47.77l-6.15,37.47h8.92l2.01-12.51Z"/>
    <polygon class="cls-1" points="181 30.34 187.5 39.43 198.75 39.43 191.77 30.34 181 30.34"/>
    <path class="cls-1" d="M262.93,20.59c.11-.76.86-1.35,1.64-1.35h32.46s1.27-7.38,1.27-7.38h-34.83c-3.06,0-7.46,2.04-8.25,7.24-.66,4.38-1.45,8.61-2.01,12.98-.67,5.2,3.2,7.37,6.26,7.37l34.29.02,1.23-7.37h-32.36c-.76,0-1.36-.66-1.25-1.41.43-3.23,1.09-6.89,1.55-10.09"/>
    <path class="cls-1" d="M354.42,39.49l3.1-18.78c.13-.76-.46-1.45-1.23-1.45h-24.39c-.77,0-1.45.64-1.58,1.41l-3.13,18.79h-8.14l3.44-20.69c.45-3.03,3.51-6.91,8.77-6.91h30.06c3.03,0,5.2,2.36,4.72,5.39l-3.58,22.24h-8.03Z"/>
    <polygon class="cls-1" points="305.94 7.89 313.81 7.89 315.11 0 307.24 0 305.94 7.89"/>
    <path class="cls-1" d="M380.89,11.91c-3.06.01-7.42,2.27-8.2,7.47-.66,4.38-1.49,8.13-2.05,12.5-.67,5.2,3.15,7.57,6.22,7.58l22.41.03c5.67-.25,6.86-3.53,6.86-3.53,0,2.11-1.81,7.69-5.25,7.68h-38.81l-1.18,7.27h42.26c7.67,0,10.54-7.09,10.91-8.77.37-1.68,2.86-15.85,3.71-23.26.85-7.41-7.27-7-7.27-7-9.67-.03-19.95,0-29.63.04M380.5,20.59c.11-.76.87-1.39,1.64-1.39,2.46,0,22,.08,23.67.03,3.44-.1,2.73,2.11,2.55,3.72-.19,1.61-.76,4.6-1.16,6.59-.39,2-1.46,2.52-3.38,2.47h-23.85c-.77-.01-1.36-.69-1.25-1.46.42-3.12,1.34-6.88,1.78-9.96Z"/>
    <path class="cls-1" d="M5.19,1.99L.22,32.24s-1.83,7.25,5.08,7.23c6.51-.01,31.3,0,34.16,0l1.32-7.46H10.88s-1.66.15-1.48-1.68c.18-1.83,3.93-24.2,4.58-28.35H5.19Z"/>
    <path class="cls-1" d="M305.24,11.8l-3.34,20.49s-1.32,7.18,5.13,7.28c6.45.1,6.95-.01,6.95-.01l1.16-7.45h-3.46s-1.66.15-1.46-1.68c.19-1.83,2.25-14.44,2.93-18.59l-7.9-.04Z"/>
    <polygon class="cls-1" points="95.35 11.84 90.87 39.48 99.71 39.43 101.43 28.86 108.41 28.89 116.59 39.48 125.72 39.48 115.12 25.95 128.29 11.84 117.81 11.84 107.72 23 102.35 23 104.11 11.84 95.35 11.84"/>
    <path class="cls-1" d="M238.56,33.08c.78,0,1.55-.59,1.69-1.35.13-.7.25-1.42.37-2.14h-27.52c-.1.7-.21,1.39-.29,2.06-.1.76.49,1.35,1.26,1.35l24.49.08ZM208.38,11.84h36.49c.75,0,3.93.37,5.05,2.9,1.12,2.52.45,4.51.33,5.33-.12.83-2.4,14.03-2.4,14.03,0,0-1.45,5.38-8.56,5.38s-35.38-.24-35.38-.24l1.99-11.26c.08-.5.91-4.67,6.58-4.67h29.45l.42-2.44s.37-1.61-1.66-1.66c-2.03-.04-33.59,0-33.59,0,0,0,1.32-7.4,1.28-7.36Z"/>
    <path class="cls-1" d="M78.7,33.08c.78,0,1.55-.59,1.69-1.35.13-.7.25-1.42.37-2.14h-27.52c-.1.7-.21,1.39-.29,2.06-.1.76.49,1.35,1.26,1.35l24.49.08ZM48.52,11.84h36.49c.75,0,3.93.37,5.05,2.9,1.12,2.52.45,4.51.33,5.33-.12.83-2.4,14.03-2.4,14.03,0,0-1.45,5.34-8.56,5.34s-35.42,0-35.42,0l2.03-11.46c.08-.5.91-4.67,6.58-4.67h29.45l.42-2.44s.37-1.61-1.66-1.66c-2.03-.04-33.59,0-33.59,0,0,0,1.32-7.4,1.28-7.36Z"/>
    <path class="cls-2" d="M174.21,59.1c-.18-.61-1.38-1.07-2.86-1.07-1.91,0-2.79.39-2.79,1.05,0,.84,1.02.96,1.77.96.7,0,1.16-.05,2.17-.05,1.74,0,2.92.4,2.92,1.87,0,1.35-1.21,2.32-4.24,2.32-2.14,0-3.69-.61-4.18-1.84l1.29-.34c.32.69,1.3,1.15,2.99,1.15,1.86,0,2.72-.47,2.72-1.15,0-.75-.83-.94-1.73-.94-.67,0-1.2.06-2.09.06-1.18,0-3.08-.33-3.08-2s2.24-2.1,4.24-2.1c2.36,0,3.76.7,4.06,1.64l-1.2.43Z"/>
    <path class="cls-2" d="M177.99,62.12v1.85h-1.35v-6.72h5.52c1.83,0,2.75.92,2.75,2.35s-.92,2.52-2.82,2.52h-4.1ZM177.99,58.33v2.65h3.9c.86,0,1.57-.21,1.57-1.39,0-.97-.67-1.26-1.54-1.26h-3.93Z"/>
    <path class="cls-2" d="M185.9,63.96v-6.72h7.88v1.06h-6.52v1.7h6.32v1.01h-6.32v1.78h6.64v1.17h-8.01Z"/>
    <path class="cls-2" d="M203.74,62c-.55,1.46-1.93,2.19-4.37,2.19-2.98,0-4.52-.87-4.52-3.58s1.54-3.58,4.52-3.58c2.43,0,3.71.54,4.34,2.16l-1.29.41c-.3-1.03-1.08-1.46-3.05-1.46-2.33,0-3.1.63-3.1,2.47s.76,2.47,3.1,2.47c2.02,0,2.8-.56,3.09-1.5l1.28.42Z"/>
    <path class="cls-2" d="M204.9,63.96v-6.72h1.36v6.72h-1.36Z"/>
    <path class="cls-2" d="M215.01,63.96l-.76-1.8h-4.76l-.77,1.8h-1.51l3.02-6.72h3.27l3.02,6.72h-1.5ZM212.6,58.27h-1.47l-1.24,2.87h3.95l-1.24-2.87Z"/>
    <path class="cls-2" d="M217.37,63.96v-6.72h1.35v5.49h6.82v1.23h-8.17Z"/>
    <path class="cls-2" d="M226.5,63.96v-6.72h1.36v6.72h-1.36Z"/>
    <path class="cls-2" d="M229.01,63.96v-.99l6.06-4.73h-5.94v-1h8.06v.88l-6.05,4.75h6.09v1.09h-8.21Z"/>
    <path class="cls-2" d="M242.63,64.18c-2.98,0-4.62-.87-4.62-3.58s1.64-3.58,4.62-3.58,4.62.87,4.62,3.58-1.64,3.58-4.62,3.58ZM242.63,58.13c-2.32,0-3.2.63-3.2,2.47s.87,2.47,3.2,2.47,3.21-.63,3.21-2.47-.87-2.47-3.21-2.47Z"/>
    <path class="cls-2" d="M251.28,63.96l-3.89-6.72h1.59l3.15,5.63,3.06-5.63h1.51l-3.78,6.72h-1.63Z"/>
    <path class="cls-2" d="M263.52,63.96l-.76-1.8h-4.76l-.77,1.8h-1.51l3.02-6.72h3.27l3.02,6.72h-1.5ZM261.11,58.27h-1.47l-1.24,2.87h3.95l-1.24-2.87Z"/>
    <path class="cls-2" d="M273.6,63.96v-1.52l-6.37-3.96v5.48h-1.35v-6.72h1.78l5.94,3.68v-3.68h1.36v6.72h-1.36Z"/>
    <path class="cls-2" d="M276.42,63.96v-6.72h7.88v1.06h-6.52v1.7h6.32v1.01h-6.32v1.78h6.65v1.17h-8.01ZM279.13,56.72l-.18-.53,2.86-1.43.31.71-2.99,1.25Z"/>
    <path class="cls-2" d="M297.83,62c-.55,1.46-1.93,2.19-4.37,2.19-2.98,0-4.52-.87-4.52-3.58s1.54-3.58,4.52-3.58c2.43,0,3.71.54,4.34,2.16l-1.29.41c-.3-1.03-1.08-1.46-3.05-1.46-2.33,0-3.1.63-3.1,2.47s.76,2.47,3.1,2.47c2.02,0,2.8-.56,3.09-1.5l1.28.42Z"/>
    <path class="cls-2" d="M305.93,63.96c-.81-.7-1.39-1.55-1.71-2.36h-3.95v2.36h-1.35v-6.72h5.8c1.84,0,2.72.83,2.72,2.12,0,1.12-.62,1.91-1.83,2.12.35.8,1,1.68,1.98,2.48h-1.66ZM300.27,58.33v2.21h4.18c.85,0,1.56-.18,1.56-1.16,0-.71-.51-1.05-1.31-1.05h-4.43Z"/>
    <path class="cls-2" d="M315.79,63.96l-.77-1.8h-4.76l-.78,1.8h-1.51l3.02-6.72h3.27l3.02,6.72h-1.5ZM313.37,58.27h-1.47l-1.24,2.87h3.95l-1.24-2.87Z"/>
    <path class="cls-2" d="M324.68,59.1c-.18-.61-1.38-1.07-2.86-1.07-1.91,0-2.79.39-2.79,1.05,0,.84,1.02.96,1.77.96.7,0,1.16-.05,2.17-.05,1.74,0,2.92.4,2.92,1.87,0,1.35-1.21,2.32-4.24,2.32-2.14,0-3.69-.61-4.18-1.84l1.29-.34c.32.69,1.3,1.15,2.99,1.15,1.86,0,2.72-.47,2.72-1.15,0-.75-.83-.94-1.73-.94-.67,0-1.2.06-2.09.06-1.18,0-3.08-.33-3.08-2s2.24-2.1,4.24-2.1c2.36,0,3.76.7,4.06,1.64l-1.2.43Z"/>
    <path class="cls-2" d="M334.18,63.96v-3.28h-5.71v3.28h-1.35v-6.72h1.35v2.32h5.71v-2.32h1.36v6.72h-1.36Z"/>
    <path class="cls-2" d="M349.22,62c-.55,1.46-1.93,2.19-4.37,2.19-2.98,0-4.52-.87-4.52-3.58s1.54-3.58,4.52-3.58c2.43,0,3.71.54,4.34,2.16l-1.29.41c-.3-1.03-1.08-1.46-3.05-1.46-2.33,0-3.1.63-3.1,2.47s.77,2.47,3.1,2.47c2.02,0,2.8-.56,3.09-1.5l1.28.42Z"/>
    <path class="cls-2" d="M350.3,63.96v-6.72h7.88v1.06h-6.52v1.7h6.32v1.01h-6.32v1.78h6.65v1.17h-8.01Z"/>
    <path class="cls-2" d="M367.2,63.96v-1.52l-6.37-3.96v5.48h-1.35v-6.72h1.78l5.94,3.68v-3.68h1.36v6.72h-1.36Z"/>
    <path class="cls-2" d="M372.89,63.96v-5.57h-3.52v-1.15h8.39v1.15h-3.53v5.57h-1.35Z"/>
    <path class="cls-2" d="M385.59,63.96c-.81-.7-1.39-1.55-1.71-2.36h-3.95v2.36h-1.35v-6.72h5.8c1.84,0,2.72.83,2.72,2.12,0,1.12-.62,1.91-1.83,2.12.35.8,1,1.68,1.98,2.48h-1.66ZM379.93,58.33v2.21h4.18c.85,0,1.56-.18,1.56-1.16,0-.71-.51-1.05-1.31-1.05h-4.43Z"/>
    <path class="cls-2" d="M394.89,57.24h1.35v4.08c0,2.53-1.47,2.78-4.49,2.78-2.5,0-3.59-.45-3.59-2.77v-4.09h1.42v4.14c0,1.29.6,1.6,2.43,1.6,1.99,0,2.87-.24,2.87-1.6v-4.14Z"/>
    <path class="cls-2" d="M407.94,63.96v-5.32l-3.98,5.32h-1.1l-4.02-5.32v5.32h-1.26v-6.72h1.93l3.93,5.17,3.88-5.17h1.9v6.72h-1.27Z"/>
    <path class="cls-2" d="M7.97,63.74l-.75-1.75H2.59l-.75,1.75H.36l2.95-6.56h3.19l2.95,6.56h-1.46ZM5.62,58.18h-1.43l-1.21,2.8h3.86l-1.21-2.8Z"/>
    <path class="cls-2" d="M16.74,57.18h1.32v3.98c0,2.47-1.43,2.71-4.38,2.71-2.44,0-3.5-.44-3.5-2.7v-3.99h1.39v4.04c0,1.26.58,1.56,2.37,1.56,1.94,0,2.8-.23,2.8-1.56v-4.04Z"/>
    <path class="cls-2" d="M22.19,63.74v-5.44h-3.43v-1.12h8.19v1.12h-3.44v5.44h-1.32Z"/>
    <path class="cls-2" d="M31.85,63.95c-2.91,0-4.51-.85-4.51-3.49s1.6-3.49,4.51-3.49,4.51.85,4.51,3.49-1.6,3.49-4.51,3.49ZM31.85,58.05c-2.27,0-3.12.61-3.12,2.41s.85,2.41,3.12,2.41,3.13-.61,3.13-2.41-.85-2.41-3.13-2.41Z"/>
    <path class="cls-2" d="M44.39,63.74c-.79-.68-1.36-1.51-1.67-2.31h-3.86v2.31h-1.32v-6.56h5.66c1.79,0,2.66.81,2.66,2.07,0,1.09-.6,1.86-1.78,2.06.34.78.98,1.64,1.93,2.42h-1.62ZM38.87,58.24v2.16h4.08c.83,0,1.52-.17,1.52-1.13,0-.69-.49-1.03-1.28-1.03h-4.32Z"/>
    <path class="cls-2" d="M47.08,63.74v-6.56h1.33v6.56h-1.33Z"/>
    <path class="cls-2" d="M49.52,63.74v-.97l5.91-4.61h-5.79v-.98h7.86v.86l-5.9,4.63h5.94v1.07h-8.01Z"/>
    <path class="cls-2" d="M62.82,63.95c-2.91,0-4.51-.85-4.51-3.49s1.6-3.49,4.51-3.49,4.5.85,4.5,3.49-1.6,3.49-4.5,3.49ZM62.82,58.05c-2.27,0-3.12.61-3.12,2.41s.85,2.41,3.12,2.41,3.13-.61,3.13-2.41-.85-2.41-3.13-2.41Z"/>
    <path class="cls-2" d="M71.25,63.74l-3.8-6.56h1.55l3.07,5.49,2.98-5.49h1.47l-3.69,6.56h-1.59Z"/>
    <path class="cls-2" d="M83.2,63.74l-.75-1.75h-4.64l-.75,1.75h-1.47l2.95-6.56h3.19l2.95,6.56h-1.46ZM80.84,58.18h-1.43l-1.21,2.8h3.86l-1.21-2.8Z"/>
    <path class="cls-2" d="M93.03,63.74v-1.48l-6.21-3.87v5.35h-1.32v-6.56h1.73l5.79,3.59v-3.59h1.33v6.56h-1.33Z"/>
    <path class="cls-2" d="M98.86,63.74v-2.78l-3.73-3.78h1.62l2.83,2.85,2.77-2.85h1.57l-3.7,3.78v2.78h-1.36ZM98.42,56.67l-.17-.51,2.79-1.4.3.69-2.92,1.22Z"/>
    <path class="cls-2" d="M114.81,58.99c-.17-.59-1.35-1.05-2.79-1.05-1.86,0-2.72.38-2.72,1.03,0,.82,1,.94,1.72.94.68,0,1.13-.05,2.12-.05,1.7,0,2.85.39,2.85,1.82,0,1.32-1.18,2.27-4.14,2.27-2.08,0-3.6-.59-4.08-1.79l1.26-.33c.31.67,1.27,1.12,2.92,1.12,1.81,0,2.66-.46,2.66-1.12,0-.74-.81-.92-1.69-.92-.65,0-1.17.06-2.03.06-1.15,0-3-.32-3-1.95s2.18-2.04,4.14-2.04c2.3,0,3.66.68,3.96,1.6l-1.17.42Z"/>
    <path class="cls-2" d="M117.18,63.74v-6.56h7.68v1.04h-6.36v1.66h6.16v.99h-6.16v1.73h6.48v1.14h-7.81Z"/>
    <path class="cls-2" d="M132.98,63.74c-.79-.68-1.36-1.51-1.67-2.31h-3.86v2.31h-1.32v-6.56h5.66c1.79,0,2.65.81,2.65,2.07,0,1.09-.6,1.86-1.78,2.06.34.78.98,1.64,1.93,2.42h-1.62ZM127.46,58.24v2.16h4.08c.83,0,1.52-.17,1.52-1.13,0-.69-.49-1.03-1.28-1.03h-4.32Z"/>
    <path class="cls-2" d="M138.31,63.74l-3.8-6.56h1.55l3.07,5.49,2.98-5.49h1.47l-3.69,6.56h-1.59Z"/>
    <path class="cls-2" d="M144.51,63.74v-6.56h1.33v6.56h-1.33Z"/>
    <path class="cls-2" d="M153.99,58.99c-.17-.59-1.35-1.05-2.79-1.05-1.86,0-2.72.38-2.72,1.03,0,.82,1,.94,1.72.94.68,0,1.13-.05,2.12-.05,1.7,0,2.85.39,2.85,1.82,0,1.32-1.18,2.27-4.14,2.27-2.08,0-3.59-.59-4.08-1.79l1.26-.33c.31.67,1.27,1.12,2.92,1.12,1.81,0,2.65-.46,2.65-1.12,0-.74-.81-.92-1.69-.92-.65,0-1.17.06-2.04.06-1.15,0-3-.32-3-1.95s2.18-2.04,4.14-2.04c2.3,0,3.66.68,3.96,1.6l-1.17.42Z"/>
    <path class="cls-2" d="M159.19,64.86l2.61-9.19h1.08l-2.63,9.19h-1.05Z"/>
</svg>
