<?xml version="1.0" encoding="UTF-8"?>
<svg id="Layer_2" xmlns="http://www.w3.org/2000/svg" viewBox="0 0 74.7 23.35">
  <defs>
    <style>
      .cls-1 {
        fill: transparent;
      }

      .cls-2 {
        fill: #1c1d1e;
      }
    </style>
  </defs>
  <g id="Layer_1-2">
    <g id="Generative_Object">
      <g>
        <path class="cls-2" d="M69.26,2.76h5.22c.67,5.01,0,3.24-5.02,3.54-.12-.99-1.47-.65-3.05-1.18-.25-.26,2.46-2.11,2.85-2.36Z"/>
        <g>
          <path class="cls-2" d="M36.98,0h13.78c6.93,2.63,13.69,5.72,20.77,7.97.53.39.62,3.72.54,4.48-.29,2.88-2.55,5.82-5.56,6.15-.14-.04-.04-1.86-.34-2.9-1.98-6.73-13.49-6.64-13.63,2.81H20.15c.03-9.99-13.83-10.13-13.88,0l-5.36-.15c-1.41-3.5-1.46-5.1,1.92-7.04,5.51-3.17,17.05-4.76,23.52-4.72,1.83-1.11,9.3-6.39,10.63-6.59Z"/>
          <path class="cls-1" d="M37.57,1.97h10.83l.15,4.48c-6.04.25-12.27.24-18.21,0,1.35-.84,6.11-4.31,7.23-4.48Z"/>
          <polygon class="cls-1" points="50.56 2.07 61.53 6.45 50.66 6.59 50.56 2.07"/>
        </g>
        <g>
          <path class="cls-2" d="M58.53,12.11c5.44-.68,8.69,5.11,5.46,9.1-3.66,4.52-11.28,1.4-10.04-4.92.4-2.01,2.57-3.93,4.58-4.18Z"/>
          <path class="cls-1" d="M59.22,14.86c4.53-.37,3.9,6.56-.39,5.61-2.99-.66-2.75-5.35.39-5.61Z"/>
        </g>
        <g>
          <path class="cls-2" d="M12.17,12.11c5.18-.71,8.64,4.76,5.76,8.81-3.44,4.84-11.32,1.96-10.33-4.33.34-2.16,2.42-4.18,4.58-4.48Z"/>
          <path class="cls-1" d="M12.96,14.86c4.48-.27,3.79,6.62-.49,5.61-2.9-.69-2.76-5.41.49-5.61Z"/>
        </g>
      </g>
    </g>
  </g>
</svg>
